<svg xmlns="http://www.w3.org/2000/svg" viewBox="0 0 512 512">
  <defs>
    <linearGradient id="a" x1="0%" y1="0%" x2="100%" y2="100%">
      <stop offset="0%" stop-color="#4FC3F7"/>
      <stop offset="50%" stop-color="#1E88E5"/>
      <stop offset="100%" stop-color="#0D47A1"/>
    </linearGradient>
    <linearGradient id="b" x1="0%" y1="0%" x2="100%" y2="100%">
      <stop offset="0%" stop-color="#26C6DA"/>
      <stop offset="100%" stop-color="#00ACC1"/>
    </linearGradient>
    <clipPath id="c">
      <circle cx="256" cy="256" r="240"/>
    </clipPath>
  </defs>
  <!-- Фон круг -->
  <circle cx="256" cy="256" r="256" fill="white"/>
  <!-- Основной круг -->
  <circle cx="256" cy="256" r="240" fill="url(#a)"/>
  <!-- Волны -->
  <g clip-path="url(#c)">
    <!-- Верхняя часть с вырезом -->
    <path d="M 60 200 Q 130 130 210 175 Q 270 210 320 160 Q 370 110 440 140 L 440 280 Q 370 240 310 270 Q 250 300 200 265 Q 140 230 60 270 Z" fill="white" opacity="0.35"/>
    <!-- Средняя волна -->
    <path d="M 16 290 Q 90 250 170 280 Q 240 305 310 270 Q 375 240 460 265 L 460 340 Q 380 315 310 345 Q 240 375 170 345 Q 90 315 16 355 Z" fill="white" opacity="0.4"/>
    <!-- Нижняя волна -->
    <path d="M 16 360 Q 90 330 170 355 Q 240 378 310 350 Q 375 325 460 348 L 460 496 L 16 496 Z" fill="#0D47A1" opacity="0.6"/>
    <!-- Тёмный ромб/стрелка вверх -->
    <path d="M 240 80 L 290 160 L 260 155 L 260 240 L 220 240 L 220 155 L 190 160 Z" fill="#1565C0"/>
  </g>
  <!-- Капля воды -->
  <path d="M 340 80 Q 340 50 360 50 Q 380 50 385 75 Q 395 110 370 125 Q 345 110 340 80 Z" fill="url(#b)"/>
  <ellipse cx="364" cy="88" rx="8" ry="5" fill="white" opacity="0.6" transform="rotate(-30 364 88)"/>
</svg>
